<?xml version="1.0" encoding="UTF-8" standalone="no"?>
<!-- Created with Inkscape (http://www.inkscape.org/) -->

<svg
   version="1.1"
   id="svg1"
   width="298.81125"
   height="130.11507"
   viewBox="0 0 298.81125 130.11507"
   sodipodi:docname="MyGymBro.svg"
   inkscape:version="1.3.2 (091e20e, 2023-11-25, custom)"
   xmlns:inkscape="http://www.inkscape.org/namespaces/inkscape"
   xmlns:sodipodi="http://sodipodi.sourceforge.net/DTD/sodipodi-0.dtd"
   xmlns="http://www.w3.org/2000/svg"
   xmlns:svg="http://www.w3.org/2000/svg">
  <defs
     id="defs1" />
  <sodipodi:namedview
     id="namedview1"
     pagecolor="#505050"
     bordercolor="#eeeeee"
     borderopacity="1"
     inkscape:showpageshadow="0"
     inkscape:pageopacity="0"
     inkscape:pagecheckerboard="0"
     inkscape:deskcolor="#505050"
     showgrid="false"
     inkscape:zoom="1.622"
     inkscape:cx="250.30826"
     inkscape:cy="174.16769"
     inkscape:window-width="1920"
     inkscape:window-height="1046"
     inkscape:window-x="-11"
     inkscape:window-y="-11"
     inkscape:window-maximized="1"
     inkscape:current-layer="g1"
     inkscape:export-bgcolor="#ffffff00" />
  <g
     inkscape:groupmode="layer"
     inkscape:label="Image"
     id="g1"
     transform="translate(-139.16466,-53.064114)">
    <path
       style="fill:#f95b0a;fill-opacity:1"
       d="m 243.22441,118.06609 v -12.99802 l 45,0.0174 45,0.0174 v 12.98058 12.98057 h -45 -45 z"
       id="path2123" />
    <path
       style="fill:#f95b0a;fill-opacity:1"
       d="m 139.44453,118.31411 0.27988,-12.75 4.25,-0.30749 4.25,-0.3075 v 13.0575 13.05749 h -4.52988 -4.52987 z"
       id="path2122" />
    <path
       style="fill:#f95b0a;fill-opacity:1"
       d="m 429.19603,117.98151 0.27988,-12.75 4.25,-0.30749 4.25,-0.3075 v 13.0575 13.05749 h -4.52988 -4.52987 z"
       id="path2122-4" />
    <path
       style="fill:#f95b0a;fill-opacity:1"
       d="m 404.2539,117.99761 0.081,-30.066508 8.44474,0.26439 8.44475,0.2644 V 118.262 148.06411 h -8.52577 -8.52576 z"
       id="path2121" />
    <path
       style="fill:#f95b0a;fill-opacity:1"
       d="M 155.22441,118.05321 V 87.961382 l 8.51467,0.18767 8.51467,0.18767 -0.26467,29.613718 -0.26467,29.61371 -8.25,0.29045 -8.25,0.29044 z"
       id="path2120" />
    <path
       style="fill:#0f1729;fill-opacity:0.5"
       d="M 381.22441,118.06411 V 68.064112 h 7.39301 7.39301 l 0.60699,1.58179 c 0.79282,2.06605 0.79282,94.770378 0,96.836428 l -0.60699,1.58178 h -7.39301 -7.39301 z"
       id="path2119" />
    <path
       style="fill:#0f1729;fill-opacity:0.501961"
       d="m 179.8314,166.48233 c -0.79282,-2.06605 -0.79282,-94.770378 0,-96.836428 l 0.60699,-1.58179 h 7.39301 7.39301 v 49.999998 50 h -7.39301 -7.39301 z"
       id="path2118" />
    <path
       style="fill:#f95b0a;fill-opacity:1"
       d="m 342.00365,182.00038 -1.72076,-1.00292 -0.0435,-62.12214 -0.0435,-62.122138 1.66928,-1.84453 1.66927,-1.84454 h 13.78831 13.78831 l 1.55671,2.22251 1.5567,2.22251 -0.0318,61.027488 -0.0318,61.02749 -1.32844,1.75 -1.32844,1.75 -13.88975,-0.0304 -13.88976,-0.0304 z"
       id="path2117" />
    <path
       style="fill:#f95b0a;fill-opacity:1"
       d="m 203.82141,180.89914 -1.597,-2.28004 V 118.06411 57.509132 l 1.5567,-2.22251 1.55671,-2.22251 h 14.28278 14.28278 l 1.16051,2.54706 1.16052,2.54705 v 60.381518 60.38152 l -1.45238,1.45238 c -0.79881,0.79881 -1.23778,1.66699 -0.97548,1.92928 0.26229,0.2623 -6.01549,0.56676 -13.95062,0.67658 l -14.42753,0.19967 z"
       id="path2116" />
  </g>
</svg>
